<svg id="Layer_1" xmlns="http://www.w3.org/2000/svg" viewBox="0 0 302.3 100.2"><style>.st0{fill:#ed555d;}</style>
<path class="st0" d="M295.4 49.2c-2.3 4.5-6.8 13.5-12 13.3-1 0-1.8-.3-2.3-.8 6.8-6.3 12.5-14.5 12.7-20.8 0 0-3.4-5.8-8.3-5.6-6.1.2-13.6 10.7-14.6 18.9-.2 1.7-.1 3.2.3 4.6-1.2 3.1-2.3 5.1-3.3 7-1.5 2.8-3.7 5.9-5.3 5.6-1.7-.3.5-5.9 3.1-14.4 1.1-3.7 3.6-11.8 6-19.7 2.9-.6 5-.9 5-.9l.1-1.3c.1-1.3-1-2.3-2.3-2.1l-1.6.3c2.2-7.1 4.1-13.4 4.7-15 1.2-3.6-.2-6-2.1-8-1.9-1.9-4.3-4.7-4.3-4.7S267 19 262.5 32.7c-4.8 11.6-9.2 20.9-10.4 23.3-1.5 3-4.1 7.5-5 7.5-.7 0-.6-.9-.3-2 1.1-4 6.6-20.6 6.6-20.6 1.4-3.6-7.9-.1-10.8.3 0 0-1.9 5.4-4.4 12.8-.8 2.3-1.4 4.5-1.7 6.5-2.6 6.1-5.3 9.5-6.6 9.4-1.2 0 2.6-9.9 4.5-15 1.2-3.4 3.5-10.5 4.6-14 1.4-4.2 2.6-7.7-1.3-13.6-3.9-5.9-8.2-11.3-8.8-14.6-1.3 3.2-5.4 16.7-8.4 25.7-.8-2.8-2.5-4.9-5.4-5.2-4.3-.5-11.5 3.8-18.4 20.2 2.7-8 12.2-36.3 12.2-36.3-2-3.4-5.6.1-10.8 1l-5.7 17.8c-3.1 5.6-7.8 11.5-14.3 16.3-1.9 1.4-3.8 2.8-5.6 4-2.7-9.3-6.3-17.8-6.7-22.3-.6-7.2 1.8-14.7 8.7-16.7 3.6-1 11.5 0 8.6 4.6-1.6 2.6-8.4 9.5-8.7 14.8-.3 4.7 2.7 8.5 7.7 8.7 1-2 8.1-19.9 9.9-24.4-1.5-3.3-10.4-8.5-20.4-6.3-8.6 1.9-14.8 7.8-16.2 18.4-1.3 9.4 2 21.5 4.3 31.3-2.3 1.5-4.4 3-6.2 4.5-5.7 4.9-9.7 10.4-10.1 16.1-.5 6.3 3.5 11.1 9.7 11.7 8.6.7 20.3-4.5 22.1-20.1.6-5.4-.4-11.5-1.9-17.4 2-1.2 4-2.5 5.8-4 4.1-3.2 7.6-6.6 10.4-9.8L175.3 89s6.6 6.6 9.7 1c3.1-5.6 11.3-31.2 15.5-38.6 4.2-7.5 8-14 10.7-13.9 2.6.1-.3 10.1-3.3 15.6-4.7 8.7-10.7 14.6-13.2 16.1 2.2 3.7 4 8.3 9.1 5.4 5.2-2.9 13.8-15.1 16.5-26.3.4-1.6.6-3.3.7-5 2.9-9 8-24.4 8-24.4s4.8 5.9-1.2 22.7c-2.6 7.3-8.4 23.7-9.4 26.8-1.1 3.2.3 7.9 6.3 8.1 3.8.2 8.3-3.9 11.9-11.2.6 1.9 1.9 3.1 4.4 3.6 2.4.4 6.1-.3 8.3-3.1 1.7-2.2 3.8-5.9 5.9-10.5-.5 1.6-1 2.9-1.3 3.9-3.4 10.3-2.9 16.7 2.4 18.4 4.5 1.4 8.3-1.1 11.9-6.4 1.4-2.1 3-5.6 4.5-9.4 1.8 2.9 5 4.6 8.4 4.8 5.8.2 12.3-6.2 16.6-15.9.2-1.2-2.3-1.5-2.3-1.5zm-133.7 28c-.1 9.5-4.6 15.5-10.4 14.7-3.2-.5-5.2-3.3-4.8-7.6.4-3.9 2.8-8 9.7-14.1 1.3-1.1 2.6-2.1 3.9-3.1.9 4 1.6 7.5 1.6 10.1zm129.5-33.8c-1.1 4-4.9 9.9-11 15.3.1-2.1 1.1-4.8 2.2-6.9 1.8-3.6 5.4-7.8 8.8-8.4zm-42-21.4c4.5-.6 8.5-4.7 10.3-1.9.5.8-2.4 8.2-4.4 12.5 0 0-9.7 2.4-10.8 2.2-1-.1 3.7-10.3 4.9-12.8zM148 66.1s-.9-3.4-2.1-1.4c-1.2 2.1-3.6 5.2-4.7 4.9-1-.3.2-4.2 2.1-10.2 1-3.2 3.4-10.5 5.4-16.6 1.7-.2 3.6-.5 3.6-.5s.7-1.8.6-2.5c-.1-.5-.4-.8-.9-.7l-2.2.3c1-2.9 1.7-5.2 2-6.1.9-2.6-.4-4.8-1.8-6.2-1.3-1.4-5.1-3-5.1-3s-9.4 26.9-12 34.3c-.6 1.8-1.1 3.6-1.4 5.3-2.5 4-5.5 7.6-8.1 7.5-.4 0-.8-.1-1.1-.3 5.3-5 9.9-12.7 10.1-18.6 0 0-2.9-5.1-6.4-5.3-8-.4-13.1 10.8-13.2 17.5-.1 6.1 3 10.2 8.9 9.8 3.3-.2 6.6-2.8 9.6-6.7.3 3.2 1.8 5.5 5.1 6.3 4.2 1.2 8.1-1.8 11.6-7.8zM122.6 62c1.4-2.9 4.6-6.7 7.4-7-.9 3.3-4.2 9.6-9 14.1-.2-2.1.7-5.1 1.6-7.1zM72.2 32.5C74.5 20 61.9 13.4 47.1 15.2c-18.4 2.3-31.9 17.7-36.2 32.3-5 16.7 1 35.2 9 39.3 2.4 1.2 8.1.7 9.5-2.9.8-2.1 3.4-9.9 6.2-18.4 8.7-4.3 34.1-19.5 36.6-33zM19.1 82.8c-4.9-4.7-9.8-20.3-5.7-34.7 4.2-14.8 20-29 34.1-29.8 12.1-.6 16.8 8.5 14.1 17.5-2.7 9-17.1 20.5-24.7 25.4 3.3-10.1 6.5-20 6.9-21.4 0 0-9.2-1.2-10.9 2.5-.8 1.9-13.8 40.5-13.8 40.5zm104.7-7.1c-3.7 5-8 5.4-10.7 4.3-3-1.2-4.3-5.9-4.2-12 .1-6.1 1.8-12.5 4.4-16.7 4.3-4.6 8.9-9.1 11.9-11.3.8-2.8.4-5.2-1.6-3.7-5.9 4.5-16.9 18.6-23.7 27.1 1.9-6.6 14.2-39.5 15.5-44-3.8-1.6-9.9 1.9-9.9 1.9-1.1 3.4-6.8 19.8-11.5 34-5.4 11.8-12.8 24.2-16.5 22.9-2-.7-1.6-6.5 1.1-15 1.9-6 6.5-14.6 10.2-17.2.8-.6 2.2.5 1.2 2.3-2 3.8-6.2 6.9-6.7 11.3-.3 2.8 1.4 4.4 4.2 4.1 0 0 4.6-9.3 5.1-14.8-.1-3.7-1.9-6.3-5.7-6.5-5.8-.3-13.4 9.1-16.9 18.1-.8.8-1.6 1.6-2.4 2.2 1.4-4.5 2.3-9.3-.7-10.3-1.7-.6-3.5.5-5 2.2-1-.7-3.5-1.1-6.1-.5-2.4 1.6-7.3 5.7-8.7 12.5-1.6 7.6.6 12.1 4.1 13.3 5 1.7 11.1-2.9 14.8-12.2.9-.6 1.8-1.4 2.6-2.2-2.5 10.2.1 16.9 6.1 17.8 5.3.8 10.6-5.9 15-14.4-1.1 3.7-1.8 6.5-2 7.8 1.7 1.1 4.6 4.5 5.8 6.3 0 0 .6-2 1.5-4.6 1.3-4 3.8-9.6 6.3-13.2-1.4 5.8.5 16 8.1 18.4 7.2 2.4 12.6-1.5 15.1-6.7.7-1.2-.7-1.2-.7-1.2zm-67.9.5c-1.4-.5-.4-5.6 1.5-10 .2-.4.4-.9.7-1.4.2 2.7 1.5 4.4 3.4 4.5h.8c-2.1 4.2-4.7 7.5-6.4 6.9z"/></svg>